<?xml version="1.0" encoding="utf-8"?>
<svg viewBox="-166416.187 -141676.875 333333 308527.781" xmlns="http://www.w3.org/2000/svg">
  <path fill="#bcbbbb" d="M333333 208338v124995H0V208338h41665v83330h250003v-83330z" transform="matrix(1, 0, 0, 1, -166416.1875, -166482.09375)"/>
  <path style="fill: rgb(255, 206, 84);" d="M -105507.95 105395.82 C -103742.695 100285.614 -101444.698 93788.506 -98873.026 87056.152 C -89194.556 61654.586 -84065.82 54060.502 -81859.372 51795.316 C -78557.248 48386.005 -74463.316 46089.72 -70019.742 45141.212 L -68482.875 44812.167 L -51271.512 26880.296 L -30666.964 51395.549 L -46691.101 67203.686 L -47026.134 68826.332 C -47939.197 73403.352 -50176.324 77619.724 -53478.447 81037.06 C -55684.895 83294.221 -63050.27 88592.025 -87703.463 98554.121 C -94246.352 101194.997 -100562.313 103577.555 -105507.95 105395.82 Z"/>
  <path style="fill: rgb(246, 187, 66);" d="M -51012.446 19027.386 L -71069.644 39914.135 C -76289.443 41027.161 -81357.309 43730.74 -85526.72 48025.861 C -96179.124 58997.658 -113908.131 114040.236 -113908.131 114040.236 C -113908.131 114040.236 -60478.11 95786.846 -49810.611 84806.517 C -45656.295 80519.421 -43023.265 75291.84 -41943.172 69907.763 L -23529.975 51740.142 L -51012.446 19027.386 Z M -49110.353 62195.302 L -51438.542 64499.612 L -52093.026 67751.927 C -52808.38 71302.689 -54558.053 74594.627 -57145.308 77259.081 C -57997.501 78136.862 -63582.526 83066.498 -89559.294 93569.308 C -92039.904 94564.467 -94474.739 95528.525 -96818.025 96429.884 C -95935.64 94016.229 -95006.994 91508.273 -94033.06 88968.219 C -83836.944 62203.327 -79058.824 56450.581 -78191.536 55572.796 C -75604.28 52900.322 -72408.315 51105.628 -68969.354 50376.816 L -65895.619 49718.731 L -63689.171 47422.446 L -51530.092 34741.729 L -37819.049 51051.457 L -49110.353 62195.302 Z"/>
  <g transform="matrix(486.96701, 0, 0, 501.59082, -113908.132812, -141954.703125)" style="">
    <path style="fill: rgb(218, 161, 68);" d="M199.909,423.397c5.969-2.797,11.938-5.767,17.875-8.876l121.501-86.781 c4.969-4.641,9.875-9.391,14.719-14.203c2.781-2.812,5.563-5.625,8.282-8.469c-0.469,55.359-25.845,115.923-74.032,164.127 c-16.062,16.047-33.469,29.562-51.625,40.484c-0.125,0.078-0.845,0.5-0.845,0.5c-4.031,2.188-9.188,1.578-12.594-1.828 c-1.125-1.141-1.938-2.469-2.438-3.875c0,0-0.375-1.109-0.469-1.594l-21.938-78.767 C198.878,423.881,199.378,423.631,199.909,423.397z"/>
    <path style="fill: rgb(218, 161, 68);" d="M207.534,150.269c-2.844,2.734-5.656,5.516-8.469,8.312c-4.813,4.828-9.563,9.734-14.188,14.703 c-21.281,3-86.812,121.517-86.812,121.517c-3.094,5.938-6.062,11.892-8.875,17.876c-0.25,0.516-0.469,1.031-0.719,1.547 L9.688,292.285c-0.469-0.094-1.594-0.469-1.594-0.469c-1.406-0.5-2.719-1.312-3.875-2.453c-3.406-3.406-4-8.547-1.812-12.594 c0,0,0.406-0.703,0.5-0.828c10.906-18.157,24.406-35.563,40.469-51.625C91.595,176.097,152.158,150.722,207.534,150.269z"/>
  </g>
  <path style="fill: rgb(244, 128, 36);" d="M -17974.169 -66189.396 C -47390.872 -35882.269 -68604.129 -1264.471 -80428.663 32272.398 C -81052.467 34153.361 -80657.05 36300.673 -79196.149 37797.922 L -38823.174 79398.864 C -37362.274 80888.089 -35277.567 81303.407 -33451.441 80660.868 C -885.035 68481.238 32716.176 46638.46 62132.879 16331.338 C 107847.395 -30740.463 133504.226 -87538.607 135421.902 -135974.23 C 135482.773 -137416.305 134980.71 -139007.352 133915.226 -140112.354 C 132834.647 -141217.36 131297.778 -141734.5 129882.652 -141671.802 C 82860.143 -139697.04 27725.251 -113261.192 -17974.169 -66189.396 Z"/>
  <g transform="matrix(486.96701, 0, 0, 501.59082, -113908.132812, -141954.703125)" style="">
    <path style="fill: rgb(116, 122, 130);" d="M317.598,237.535c-11.375,0-22.062-4.438-30.094-12.469c-8.031-8.047-12.469-18.735-12.469-30.11 s4.438-22.063,12.469-30.11c8.031-8.031,18.75-12.469,30.094-12.469c11.375,0,22.062,4.438,30.125,12.469 c16.595,16.61,16.595,43.625,0,60.22c-8.062,8.031-18.75,12.469-30.094,12.469C317.598,237.535,317.598,237.535,317.598,237.535z"/>
    <path style="fill: rgb(116, 122, 130);" d="M227.284,327.849c-11.375,0-22.062-4.422-30.094-12.469c-8.032-8.031-12.47-18.735-12.47-30.095 c0-11.375,4.438-22.078,12.47-30.125c8.031-8.031,18.719-12.469,30.094-12.469c11.376,0,22.063,4.438,30.126,12.469 c16.594,16.61,16.594,43.626,0,60.22C249.347,323.427,238.66,327.849,227.284,327.849L227.284,327.849z"/>
  </g>
  <g transform="matrix(486.96701, 0, 0, 501.59082, -113908.132812, -141954.703125)" style="">
    <path style="fill:#CCD1D9;" d="M355.254,157.331c-10.062-10.047-23.438-15.594-37.656-15.594c-14.188,0-27.562,5.547-37.625,15.594 c-10.031,10.047-15.594,23.422-15.594,37.625c0,14.219,5.562,27.579,15.594,37.641c10.062,10.046,23.438,15.578,37.625,15.578 c14.219,0,27.594-5.531,37.656-15.578C376.005,211.847,376.005,178.082,355.254,157.331z M340.192,217.535 c-6.25,6.234-14.406,9.359-22.594,9.359c-8.156,0-16.344-3.125-22.562-9.359c-12.469-12.469-12.469-32.688,0-45.157 c6.219-6.234,14.406-9.344,22.562-9.344c8.188,0,16.344,3.109,22.594,9.344C352.66,184.847,352.66,205.066,340.192,217.535z"/>
    <path style="fill:#CCD1D9;" d="M227.284,232.067c-14.219,0-27.562,5.531-37.626,15.578c-10.062,10.046-15.594,23.422-15.594,37.641 c0,14.204,5.531,27.563,15.594,37.626c10.063,10.047,23.407,15.594,37.626,15.594c14.22,0,27.595-5.547,37.658-15.594 c20.75-20.75,20.75-54.517,0-75.267C254.879,237.598,241.504,232.067,227.284,232.067z M249.879,307.849 c-6.25,6.25-14.407,9.359-22.595,9.359c-8.156,0-16.344-3.109-22.562-9.359c-12.47-12.47-12.47-32.688,0-45.157 c6.219-6.235,14.406-9.344,22.562-9.344c8.188,0,16.345,3.109,22.595,9.344C262.348,275.16,262.348,295.379,249.879,307.849z"/>
  </g>
  <path style="fill: rgb(218, 161, 68);" d="M 119458.636 -68814.721 L 64689.456 -125221.126 C 86998.876 -135213.818 109232.329 -140802.042 129882.652 -141671.802 C 131297.778 -141734.5 132834.647 -141217.36 133915.226 -140112.354 C 134980.71 -139007.352 135482.773 -137416.305 135421.902 -135974.23 C 134584.806 -114687.717 129152.202 -91794.105 119458.636 -68814.721 Z"/>
</svg>